%TF.GenerationSoftware,KiCad,Pcbnew,8.0.3*%
%TF.CreationDate,2024-06-19T11:52:11-04:00*%
%TF.ProjectId,SioHub,53696f48-7562-42e6-9b69-6361645f7063,rev?*%
%TF.SameCoordinates,Original*%
%TF.FileFunction,Copper,L1,Top*%
%TF.FilePolarity,Positive*%
%FSLAX46Y46*%
G04 Gerber Fmt 4.6, Leading zero omitted, Abs format (unit mm)*
G04 Created by KiCad (PCBNEW 8.0.3) date 2024-06-19 11:52:11*
%MOMM*%
%LPD*%
G01*
G04 APERTURE LIST*
%TA.AperFunction,ComponentPad*%
%ADD10C,1.524000*%
%TD*%
%TA.AperFunction,ComponentPad*%
%ADD11C,1.600000*%
%TD*%
%TA.AperFunction,ComponentPad*%
%ADD12R,1.700000X1.700000*%
%TD*%
%TA.AperFunction,ComponentPad*%
%ADD13O,1.700000X1.700000*%
%TD*%
%TA.AperFunction,Conductor*%
%ADD14C,0.200000*%
%TD*%
G04 APERTURE END LIST*
D10*
%TO.P,SIO1,1,Clock_Input*%
%TO.N,CLKIN*%
X127250000Y-65500000D03*
%TO.P,SIO1,2,Clock_Output*%
%TO.N,CLKOUT*%
X129000000Y-62500000D03*
%TO.P,SIO1,3,Data_Input*%
%TO.N,DIN*%
X130750000Y-65500000D03*
%TO.P,SIO1,4,Ground*%
%TO.N,GND*%
X132500000Y-62500000D03*
%TO.P,SIO1,5,Data_Output*%
%TO.N,DOUT*%
X134250000Y-65500000D03*
%TO.P,SIO1,6,Ground*%
%TO.N,GND*%
X136000000Y-62500000D03*
%TO.P,SIO1,7,Command*%
%TO.N,CMD*%
X137750000Y-65500000D03*
%TO.P,SIO1,8,Motor_Control*%
%TO.N,MOTOR*%
X139500000Y-62500000D03*
%TO.P,SIO1,9,Proceed*%
%TO.N,PROC*%
X141250000Y-65500000D03*
%TO.P,SIO1,10,+5V/Ready*%
%TO.N,5V*%
X143000000Y-62500000D03*
%TO.P,SIO1,11,Audio_Input*%
%TO.N,AUDIN*%
X144750000Y-65500000D03*
%TO.P,SIO1,12,+12V*%
%TO.N,12V*%
X146500000Y-62500000D03*
%TO.P,SIO1,13,Interrupt*%
%TO.N,INT*%
X148250000Y-65500000D03*
%TD*%
%TO.P,SIO2,1,Clock_Input*%
%TO.N,CLKIN*%
X91250000Y-86500000D03*
%TO.P,SIO2,2,Clock_Output*%
%TO.N,CLKOUT*%
X93000000Y-83500000D03*
%TO.P,SIO2,3,Data_Input*%
%TO.N,DIN*%
X94750000Y-86500000D03*
%TO.P,SIO2,4,Ground*%
%TO.N,GND*%
X96500000Y-83500000D03*
%TO.P,SIO2,5,Data_Output*%
%TO.N,DOUT*%
X98250000Y-86500000D03*
%TO.P,SIO2,6,Ground*%
%TO.N,GND*%
X100000000Y-83500000D03*
%TO.P,SIO2,7,Command*%
%TO.N,CMD*%
X101750000Y-86500000D03*
%TO.P,SIO2,8,Motor_Control*%
%TO.N,MOTOR*%
X103500000Y-83500000D03*
%TO.P,SIO2,9,Proceed*%
%TO.N,PROC*%
X105250000Y-86500000D03*
%TO.P,SIO2,10,+5V/Ready*%
%TO.N,5V*%
X107000000Y-83500000D03*
%TO.P,SIO2,11,Audio_Input*%
%TO.N,AUDIN*%
X108750000Y-86500000D03*
%TO.P,SIO2,12,+12V*%
%TO.N,12V*%
X110500000Y-83500000D03*
%TO.P,SIO2,13,Interrupt*%
%TO.N,INT*%
X112250000Y-86500000D03*
%TD*%
D11*
%TO.P,C1,1*%
%TO.N,5V*%
X118987800Y-53992200D03*
%TO.P,C1,2*%
%TO.N,GND*%
X121487800Y-53992200D03*
%TD*%
D12*
%TO.P,SIO4,1,Pin_1*%
%TO.N,CLKIN*%
X162000000Y-59300000D03*
D13*
%TO.P,SIO4,2,Pin_2*%
%TO.N,CLKOUT*%
X162000000Y-61840000D03*
%TO.P,SIO4,3,Pin_3*%
%TO.N,DIN*%
X162000000Y-64380000D03*
%TO.P,SIO4,4,Pin_4*%
%TO.N,GND*%
X162000000Y-66920000D03*
%TO.P,SIO4,5,Pin_5*%
%TO.N,DOUT*%
X162000000Y-69460000D03*
%TO.P,SIO4,6,Pin_6*%
%TO.N,GND*%
X162000000Y-72000000D03*
%TO.P,SIO4,7,Pin_7*%
%TO.N,CMD*%
X162000000Y-74540000D03*
%TO.P,SIO4,8,Pin_8*%
%TO.N,MOTOR*%
X162000000Y-77080000D03*
%TO.P,SIO4,9,Pin_9*%
%TO.N,PROC*%
X162000000Y-79620000D03*
%TO.P,SIO4,10,Pin_10*%
%TO.N,5V*%
X162000000Y-82160000D03*
%TO.P,SIO4,11,Pin_11*%
%TO.N,AUDIN*%
X162000000Y-84700000D03*
%TO.P,SIO4,12,Pin_12*%
%TO.N,12V*%
X162000000Y-87240000D03*
%TO.P,SIO4,13,Pin_13*%
%TO.N,INT*%
X162000000Y-89780000D03*
%TD*%
D10*
%TO.P,SIO0,1,Clock_Input*%
%TO.N,CLKIN*%
X91250000Y-65500000D03*
%TO.P,SIO0,2,Clock_Output*%
%TO.N,CLKOUT*%
X93000000Y-62500000D03*
%TO.P,SIO0,3,Data_Input*%
%TO.N,DIN*%
X94750000Y-65500000D03*
%TO.P,SIO0,4,Ground*%
%TO.N,GND*%
X96500000Y-62500000D03*
%TO.P,SIO0,5,Data_Output*%
%TO.N,DOUT*%
X98250000Y-65500000D03*
%TO.P,SIO0,6,Ground*%
%TO.N,GND*%
X100000000Y-62500000D03*
%TO.P,SIO0,7,Command*%
%TO.N,CMD*%
X101750000Y-65500000D03*
%TO.P,SIO0,8,Motor_Control*%
%TO.N,MOTOR*%
X103500000Y-62500000D03*
%TO.P,SIO0,9,Proceed*%
%TO.N,PROC*%
X105250000Y-65500000D03*
%TO.P,SIO0,10,+5V/Ready*%
%TO.N,5V*%
X107000000Y-62500000D03*
%TO.P,SIO0,11,Audio_Input*%
%TO.N,AUDIN*%
X108750000Y-65500000D03*
%TO.P,SIO0,12,+12V*%
%TO.N,12V*%
X110500000Y-62500000D03*
%TO.P,SIO0,13,Interrupt*%
%TO.N,INT*%
X112250000Y-65500000D03*
%TD*%
%TO.P,SIO3,1,Clock_Input*%
%TO.N,CLKIN*%
X127250000Y-86500000D03*
%TO.P,SIO3,2,Clock_Output*%
%TO.N,CLKOUT*%
X129000000Y-83500000D03*
%TO.P,SIO3,3,Data_Input*%
%TO.N,DIN*%
X130750000Y-86500000D03*
%TO.P,SIO3,4,Ground*%
%TO.N,GND*%
X132500000Y-83500000D03*
%TO.P,SIO3,5,Data_Output*%
%TO.N,DOUT*%
X134250000Y-86500000D03*
%TO.P,SIO3,6,Ground*%
%TO.N,GND*%
X136000000Y-83500000D03*
%TO.P,SIO3,7,Command*%
%TO.N,CMD*%
X137750000Y-86500000D03*
%TO.P,SIO3,8,Motor_Control*%
%TO.N,MOTOR*%
X139500000Y-83500000D03*
%TO.P,SIO3,9,Proceed*%
%TO.N,PROC*%
X141250000Y-86500000D03*
%TO.P,SIO3,10,+5V/Ready*%
%TO.N,5V*%
X143000000Y-83500000D03*
%TO.P,SIO3,11,Audio_Input*%
%TO.N,AUDIN*%
X144750000Y-86500000D03*
%TO.P,SIO3,12,+12V*%
%TO.N,12V*%
X146500000Y-83500000D03*
%TO.P,SIO3,13,Interrupt*%
%TO.N,INT*%
X148250000Y-86500000D03*
%TD*%
D14*
%TO.N,12V*%
X162000000Y-87240000D02*
X160848300Y-87240000D01*
X157108300Y-83500000D02*
X146500000Y-83500000D01*
X160848300Y-87240000D02*
X157108300Y-83500000D01*
X111571900Y-84571900D02*
X110500000Y-83500000D01*
X145428100Y-84571900D02*
X111571900Y-84571900D01*
X146500000Y-83500000D02*
X145428100Y-84571900D01*
%TO.N,5V*%
X144340000Y-82160000D02*
X143000000Y-83500000D01*
X162000000Y-82160000D02*
X144340000Y-82160000D01*
%TO.N,CMD*%
X146790000Y-74540000D02*
X137750000Y-65500000D01*
X162000000Y-74540000D02*
X146790000Y-74540000D01*
X135428600Y-67821400D02*
X137750000Y-65500000D01*
X104071400Y-67821400D02*
X135428600Y-67821400D01*
X101750000Y-65500000D02*
X104071400Y-67821400D01*
%TO.N,DIN*%
X162000000Y-64380000D02*
X160848300Y-64380000D01*
X131004400Y-65500000D02*
X130750000Y-65500000D01*
X135069400Y-61435000D02*
X131004400Y-65500000D01*
X157903300Y-61435000D02*
X135069400Y-61435000D01*
X160848300Y-64380000D02*
X157903300Y-61435000D01*
X96322700Y-63927300D02*
X94750000Y-65500000D01*
X122399500Y-63927300D02*
X96322700Y-63927300D01*
X125053000Y-66580800D02*
X122399500Y-63927300D01*
X129669200Y-66580800D02*
X125053000Y-66580800D01*
X130750000Y-65500000D02*
X129669200Y-66580800D01*
%TO.N,INT*%
X162000000Y-89780000D02*
X160848300Y-89780000D01*
X113350200Y-87600200D02*
X112250000Y-86500000D01*
X148250000Y-87600200D02*
X113350200Y-87600200D01*
X148250000Y-86500000D02*
X148250000Y-87600200D01*
X150429800Y-89780000D02*
X160848300Y-89780000D01*
X148250000Y-87600200D02*
X150429800Y-89780000D01*
%TO.N,PROC*%
X107160500Y-67410500D02*
X105250000Y-65500000D01*
X134247200Y-67410500D02*
X107160500Y-67410500D01*
X137235400Y-64422300D02*
X134247200Y-67410500D01*
X140172300Y-64422300D02*
X137235400Y-64422300D01*
X141250000Y-65500000D02*
X140172300Y-64422300D01*
%TO.N,AUDIN*%
X109843100Y-85406900D02*
X108750000Y-86500000D01*
X143656900Y-85406900D02*
X109843100Y-85406900D01*
X144750000Y-86500000D02*
X143656900Y-85406900D01*
%TO.N,MOTOR*%
X145920000Y-77080000D02*
X139500000Y-83500000D01*
X162000000Y-77080000D02*
X145920000Y-77080000D01*
X105029800Y-81970200D02*
X103500000Y-83500000D01*
X137970200Y-81970200D02*
X105029800Y-81970200D01*
X139500000Y-83500000D02*
X137970200Y-81970200D01*
%TO.N,DOUT*%
X162000000Y-69460000D02*
X160848300Y-69460000D01*
X99327600Y-64422400D02*
X98250000Y-65500000D01*
X122185200Y-64422400D02*
X99327600Y-64422400D01*
X124762400Y-66999600D02*
X122185200Y-64422400D01*
X132750400Y-66999600D02*
X124762400Y-66999600D01*
X134250000Y-65500000D02*
X132750400Y-66999600D01*
X155393600Y-64005300D02*
X160848300Y-69460000D01*
X135744700Y-64005300D02*
X155393600Y-64005300D01*
X134250000Y-65500000D02*
X135744700Y-64005300D01*
%TO.N,CLKOUT*%
X130473100Y-61026900D02*
X129000000Y-62500000D01*
X160035200Y-61026900D02*
X130473100Y-61026900D01*
X160848300Y-61840000D02*
X160035200Y-61026900D01*
X162000000Y-61840000D02*
X160848300Y-61840000D01*
X94100000Y-84600000D02*
X93000000Y-83500000D01*
X104393600Y-84600000D02*
X94100000Y-84600000D01*
X106596300Y-82397300D02*
X104393600Y-84600000D01*
X127897300Y-82397300D02*
X106596300Y-82397300D01*
X129000000Y-83500000D02*
X127897300Y-82397300D01*
%TO.N,CLKIN*%
X127250000Y-62727200D02*
X127250000Y-65500000D01*
X130677200Y-59300000D02*
X127250000Y-62727200D01*
X162000000Y-59300000D02*
X130677200Y-59300000D01*
%TO.N,GND*%
X136000000Y-83500000D02*
X132500000Y-83500000D01*
X100000000Y-83500000D02*
X96500000Y-83500000D01*
X96500000Y-62500000D02*
X100000000Y-62500000D01*
X119647700Y-55832300D02*
X121487800Y-53992200D01*
X106667700Y-55832300D02*
X119647700Y-55832300D01*
X100000000Y-62500000D02*
X106667700Y-55832300D01*
X137083600Y-63583600D02*
X136000000Y-62500000D01*
X157511900Y-63583600D02*
X137083600Y-63583600D01*
X160848300Y-66920000D02*
X157511900Y-63583600D01*
X162000000Y-66920000D02*
X160848300Y-66920000D01*
%TD*%
M02*
