M48
; DRILL file {KiCad 8.0.3} date 2024-06-19T11:52:06-0400
; FORMAT={-:-/ absolute / metric / decimal}
; #@! TF.CreationDate,2024-06-19T11:52:06-04:00
; #@! TF.GenerationSoftware,Kicad,Pcbnew,8.0.3
; #@! TF.FileFunction,Plated,1,2,PTH
FMAT,2
METRIC
; #@! TA.AperFunction,Plated,PTH,ComponentDrill
T1C0.762
; #@! TA.AperFunction,Plated,PTH,ComponentDrill
T2C0.800
; #@! TA.AperFunction,Plated,PTH,ComponentDrill
T3C1.000
%
G90
G05
T1
X91.25Y-65.5
X91.25Y-86.5
X93.0Y-62.5
X93.0Y-83.5
X94.75Y-65.5
X94.75Y-86.5
X96.5Y-62.5
X96.5Y-83.5
X98.25Y-65.5
X98.25Y-86.5
X100.0Y-62.5
X100.0Y-83.5
X101.75Y-65.5
X101.75Y-86.5
X103.5Y-62.5
X103.5Y-83.5
X105.25Y-65.5
X105.25Y-86.5
X107.0Y-62.5
X107.0Y-83.5
X108.75Y-65.5
X108.75Y-86.5
X110.5Y-62.5
X110.5Y-83.5
X112.25Y-65.5
X112.25Y-86.5
X127.25Y-65.5
X127.25Y-86.5
X129.0Y-62.5
X129.0Y-83.5
X130.75Y-65.5
X130.75Y-86.5
X132.5Y-62.5
X132.5Y-83.5
X134.25Y-65.5
X134.25Y-86.5
X136.0Y-62.5
X136.0Y-83.5
X137.75Y-65.5
X137.75Y-86.5
X139.5Y-62.5
X139.5Y-83.5
X141.25Y-65.5
X141.25Y-86.5
X143.0Y-62.5
X143.0Y-83.5
X144.75Y-65.5
X144.75Y-86.5
X146.5Y-62.5
X146.5Y-83.5
X148.25Y-65.5
X148.25Y-86.5
T2
X118.988Y-53.992
X121.488Y-53.992
T3
X162.0Y-59.3
X162.0Y-61.84
X162.0Y-64.38
X162.0Y-66.92
X162.0Y-69.46
X162.0Y-72.0
X162.0Y-74.54
X162.0Y-77.08
X162.0Y-79.62
X162.0Y-82.16
X162.0Y-84.7
X162.0Y-87.24
X162.0Y-89.78
M30
