%TF.GenerationSoftware,KiCad,Pcbnew,8.0.3*%
%TF.CreationDate,2024-06-19T11:52:11-04:00*%
%TF.ProjectId,SioHub,53696f48-7562-42e6-9b69-6361645f7063,rev?*%
%TF.SameCoordinates,Original*%
%TF.FileFunction,Soldermask,Top*%
%TF.FilePolarity,Negative*%
%FSLAX46Y46*%
G04 Gerber Fmt 4.6, Leading zero omitted, Abs format (unit mm)*
G04 Created by KiCad (PCBNEW 8.0.3) date 2024-06-19 11:52:11*
%MOMM*%
%LPD*%
G01*
G04 APERTURE LIST*
%ADD10C,1.524000*%
%ADD11C,1.600000*%
%ADD12R,1.700000X1.700000*%
%ADD13O,1.700000X1.700000*%
G04 APERTURE END LIST*
D10*
%TO.C,SIO1*%
X127250000Y-65500000D03*
X129000000Y-62500000D03*
X130750000Y-65500000D03*
X132500000Y-62500000D03*
X134250000Y-65500000D03*
X136000000Y-62500000D03*
X137750000Y-65500000D03*
X139500000Y-62500000D03*
X141250000Y-65500000D03*
X143000000Y-62500000D03*
X144750000Y-65500000D03*
X146500000Y-62500000D03*
X148250000Y-65500000D03*
%TD*%
%TO.C,SIO2*%
X91250000Y-86500000D03*
X93000000Y-83500000D03*
X94750000Y-86500000D03*
X96500000Y-83500000D03*
X98250000Y-86500000D03*
X100000000Y-83500000D03*
X101750000Y-86500000D03*
X103500000Y-83500000D03*
X105250000Y-86500000D03*
X107000000Y-83500000D03*
X108750000Y-86500000D03*
X110500000Y-83500000D03*
X112250000Y-86500000D03*
%TD*%
D11*
%TO.C,C1*%
X118987800Y-53992200D03*
X121487800Y-53992200D03*
%TD*%
D12*
%TO.C,SIO4*%
X162000000Y-59300000D03*
D13*
X162000000Y-61840000D03*
X162000000Y-64380000D03*
X162000000Y-66920000D03*
X162000000Y-69460000D03*
X162000000Y-72000000D03*
X162000000Y-74540000D03*
X162000000Y-77080000D03*
X162000000Y-79620000D03*
X162000000Y-82160000D03*
X162000000Y-84700000D03*
X162000000Y-87240000D03*
X162000000Y-89780000D03*
%TD*%
D10*
%TO.C,SIO0*%
X91250000Y-65500000D03*
X93000000Y-62500000D03*
X94750000Y-65500000D03*
X96500000Y-62500000D03*
X98250000Y-65500000D03*
X100000000Y-62500000D03*
X101750000Y-65500000D03*
X103500000Y-62500000D03*
X105250000Y-65500000D03*
X107000000Y-62500000D03*
X108750000Y-65500000D03*
X110500000Y-62500000D03*
X112250000Y-65500000D03*
%TD*%
%TO.C,SIO3*%
X127250000Y-86500000D03*
X129000000Y-83500000D03*
X130750000Y-86500000D03*
X132500000Y-83500000D03*
X134250000Y-86500000D03*
X136000000Y-83500000D03*
X137750000Y-86500000D03*
X139500000Y-83500000D03*
X141250000Y-86500000D03*
X143000000Y-83500000D03*
X144750000Y-86500000D03*
X146500000Y-83500000D03*
X148250000Y-86500000D03*
%TD*%
M02*
