%TF.GenerationSoftware,KiCad,Pcbnew,8.0.3*%
%TF.CreationDate,2024-06-19T11:52:11-04:00*%
%TF.ProjectId,SioHub,53696f48-7562-42e6-9b69-6361645f7063,rev?*%
%TF.SameCoordinates,Original*%
%TF.FileFunction,Copper,L2,Bot*%
%TF.FilePolarity,Positive*%
%FSLAX46Y46*%
G04 Gerber Fmt 4.6, Leading zero omitted, Abs format (unit mm)*
G04 Created by KiCad (PCBNEW 8.0.3) date 2024-06-19 11:52:11*
%MOMM*%
%LPD*%
G01*
G04 APERTURE LIST*
%TA.AperFunction,ComponentPad*%
%ADD10C,1.524000*%
%TD*%
%TA.AperFunction,ComponentPad*%
%ADD11C,1.600000*%
%TD*%
%TA.AperFunction,ComponentPad*%
%ADD12R,1.700000X1.700000*%
%TD*%
%TA.AperFunction,ComponentPad*%
%ADD13O,1.700000X1.700000*%
%TD*%
%TA.AperFunction,Conductor*%
%ADD14C,0.200000*%
%TD*%
G04 APERTURE END LIST*
D10*
%TO.P,SIO1,1,Clock_Input*%
%TO.N,CLKIN*%
X127250000Y-65500000D03*
%TO.P,SIO1,2,Clock_Output*%
%TO.N,CLKOUT*%
X129000000Y-62500000D03*
%TO.P,SIO1,3,Data_Input*%
%TO.N,DIN*%
X130750000Y-65500000D03*
%TO.P,SIO1,4,Ground*%
%TO.N,GND*%
X132500000Y-62500000D03*
%TO.P,SIO1,5,Data_Output*%
%TO.N,DOUT*%
X134250000Y-65500000D03*
%TO.P,SIO1,6,Ground*%
%TO.N,GND*%
X136000000Y-62500000D03*
%TO.P,SIO1,7,Command*%
%TO.N,CMD*%
X137750000Y-65500000D03*
%TO.P,SIO1,8,Motor_Control*%
%TO.N,MOTOR*%
X139500000Y-62500000D03*
%TO.P,SIO1,9,Proceed*%
%TO.N,PROC*%
X141250000Y-65500000D03*
%TO.P,SIO1,10,+5V/Ready*%
%TO.N,5V*%
X143000000Y-62500000D03*
%TO.P,SIO1,11,Audio_Input*%
%TO.N,AUDIN*%
X144750000Y-65500000D03*
%TO.P,SIO1,12,+12V*%
%TO.N,12V*%
X146500000Y-62500000D03*
%TO.P,SIO1,13,Interrupt*%
%TO.N,INT*%
X148250000Y-65500000D03*
%TD*%
%TO.P,SIO2,1,Clock_Input*%
%TO.N,CLKIN*%
X91250000Y-86500000D03*
%TO.P,SIO2,2,Clock_Output*%
%TO.N,CLKOUT*%
X93000000Y-83500000D03*
%TO.P,SIO2,3,Data_Input*%
%TO.N,DIN*%
X94750000Y-86500000D03*
%TO.P,SIO2,4,Ground*%
%TO.N,GND*%
X96500000Y-83500000D03*
%TO.P,SIO2,5,Data_Output*%
%TO.N,DOUT*%
X98250000Y-86500000D03*
%TO.P,SIO2,6,Ground*%
%TO.N,GND*%
X100000000Y-83500000D03*
%TO.P,SIO2,7,Command*%
%TO.N,CMD*%
X101750000Y-86500000D03*
%TO.P,SIO2,8,Motor_Control*%
%TO.N,MOTOR*%
X103500000Y-83500000D03*
%TO.P,SIO2,9,Proceed*%
%TO.N,PROC*%
X105250000Y-86500000D03*
%TO.P,SIO2,10,+5V/Ready*%
%TO.N,5V*%
X107000000Y-83500000D03*
%TO.P,SIO2,11,Audio_Input*%
%TO.N,AUDIN*%
X108750000Y-86500000D03*
%TO.P,SIO2,12,+12V*%
%TO.N,12V*%
X110500000Y-83500000D03*
%TO.P,SIO2,13,Interrupt*%
%TO.N,INT*%
X112250000Y-86500000D03*
%TD*%
D11*
%TO.P,C1,1*%
%TO.N,5V*%
X118987800Y-53992200D03*
%TO.P,C1,2*%
%TO.N,GND*%
X121487800Y-53992200D03*
%TD*%
D12*
%TO.P,SIO4,1,Pin_1*%
%TO.N,CLKIN*%
X162000000Y-59300000D03*
D13*
%TO.P,SIO4,2,Pin_2*%
%TO.N,CLKOUT*%
X162000000Y-61840000D03*
%TO.P,SIO4,3,Pin_3*%
%TO.N,DIN*%
X162000000Y-64380000D03*
%TO.P,SIO4,4,Pin_4*%
%TO.N,GND*%
X162000000Y-66920000D03*
%TO.P,SIO4,5,Pin_5*%
%TO.N,DOUT*%
X162000000Y-69460000D03*
%TO.P,SIO4,6,Pin_6*%
%TO.N,GND*%
X162000000Y-72000000D03*
%TO.P,SIO4,7,Pin_7*%
%TO.N,CMD*%
X162000000Y-74540000D03*
%TO.P,SIO4,8,Pin_8*%
%TO.N,MOTOR*%
X162000000Y-77080000D03*
%TO.P,SIO4,9,Pin_9*%
%TO.N,PROC*%
X162000000Y-79620000D03*
%TO.P,SIO4,10,Pin_10*%
%TO.N,5V*%
X162000000Y-82160000D03*
%TO.P,SIO4,11,Pin_11*%
%TO.N,AUDIN*%
X162000000Y-84700000D03*
%TO.P,SIO4,12,Pin_12*%
%TO.N,12V*%
X162000000Y-87240000D03*
%TO.P,SIO4,13,Pin_13*%
%TO.N,INT*%
X162000000Y-89780000D03*
%TD*%
D10*
%TO.P,SIO0,1,Clock_Input*%
%TO.N,CLKIN*%
X91250000Y-65500000D03*
%TO.P,SIO0,2,Clock_Output*%
%TO.N,CLKOUT*%
X93000000Y-62500000D03*
%TO.P,SIO0,3,Data_Input*%
%TO.N,DIN*%
X94750000Y-65500000D03*
%TO.P,SIO0,4,Ground*%
%TO.N,GND*%
X96500000Y-62500000D03*
%TO.P,SIO0,5,Data_Output*%
%TO.N,DOUT*%
X98250000Y-65500000D03*
%TO.P,SIO0,6,Ground*%
%TO.N,GND*%
X100000000Y-62500000D03*
%TO.P,SIO0,7,Command*%
%TO.N,CMD*%
X101750000Y-65500000D03*
%TO.P,SIO0,8,Motor_Control*%
%TO.N,MOTOR*%
X103500000Y-62500000D03*
%TO.P,SIO0,9,Proceed*%
%TO.N,PROC*%
X105250000Y-65500000D03*
%TO.P,SIO0,10,+5V/Ready*%
%TO.N,5V*%
X107000000Y-62500000D03*
%TO.P,SIO0,11,Audio_Input*%
%TO.N,AUDIN*%
X108750000Y-65500000D03*
%TO.P,SIO0,12,+12V*%
%TO.N,12V*%
X110500000Y-62500000D03*
%TO.P,SIO0,13,Interrupt*%
%TO.N,INT*%
X112250000Y-65500000D03*
%TD*%
%TO.P,SIO3,1,Clock_Input*%
%TO.N,CLKIN*%
X127250000Y-86500000D03*
%TO.P,SIO3,2,Clock_Output*%
%TO.N,CLKOUT*%
X129000000Y-83500000D03*
%TO.P,SIO3,3,Data_Input*%
%TO.N,DIN*%
X130750000Y-86500000D03*
%TO.P,SIO3,4,Ground*%
%TO.N,GND*%
X132500000Y-83500000D03*
%TO.P,SIO3,5,Data_Output*%
%TO.N,DOUT*%
X134250000Y-86500000D03*
%TO.P,SIO3,6,Ground*%
%TO.N,GND*%
X136000000Y-83500000D03*
%TO.P,SIO3,7,Command*%
%TO.N,CMD*%
X137750000Y-86500000D03*
%TO.P,SIO3,8,Motor_Control*%
%TO.N,MOTOR*%
X139500000Y-83500000D03*
%TO.P,SIO3,9,Proceed*%
%TO.N,PROC*%
X141250000Y-86500000D03*
%TO.P,SIO3,10,+5V/Ready*%
%TO.N,5V*%
X143000000Y-83500000D03*
%TO.P,SIO3,11,Audio_Input*%
%TO.N,AUDIN*%
X144750000Y-86500000D03*
%TO.P,SIO3,12,+12V*%
%TO.N,12V*%
X146500000Y-83500000D03*
%TO.P,SIO3,13,Interrupt*%
%TO.N,INT*%
X148250000Y-86500000D03*
%TD*%
D14*
%TO.N,12V*%
X110500000Y-62500000D02*
X110500000Y-83500000D01*
X146500000Y-83500000D02*
X146500000Y-62500000D01*
%TO.N,5V*%
X107000000Y-62500000D02*
X107000000Y-83500000D01*
X115507800Y-53992200D02*
X118987800Y-53992200D01*
X107000000Y-62500000D02*
X115507800Y-53992200D01*
X143000000Y-83500000D02*
X143000000Y-62500000D01*
X120136300Y-52843700D02*
X118987800Y-53992200D01*
X133343700Y-52843700D02*
X120136300Y-52843700D01*
X143000000Y-62500000D02*
X133343700Y-52843700D01*
%TO.N,CMD*%
X137750000Y-86500000D02*
X137750000Y-65500000D01*
X101750000Y-65500000D02*
X101750000Y-86500000D01*
%TO.N,DIN*%
X130750000Y-86500000D02*
X130750000Y-65500000D01*
X94750000Y-65500000D02*
X94750000Y-86500000D01*
%TO.N,INT*%
X112250000Y-65500000D02*
X112250000Y-86500000D01*
X162000000Y-89780000D02*
X162000000Y-88628300D01*
X161100000Y-78350000D02*
X148250000Y-65500000D01*
X162385000Y-78350000D02*
X161100000Y-78350000D01*
X163580000Y-79545000D02*
X162385000Y-78350000D01*
X163580000Y-87336200D02*
X163580000Y-79545000D01*
X162287900Y-88628300D02*
X163580000Y-87336200D01*
X162000000Y-88628300D02*
X162287900Y-88628300D01*
%TO.N,PROC*%
X105250000Y-65500000D02*
X105250000Y-86500000D01*
X141250000Y-65500000D02*
X141250000Y-86500000D01*
X142364300Y-87614300D02*
X141250000Y-86500000D01*
X148797100Y-87614300D02*
X142364300Y-87614300D01*
X150441400Y-85970000D02*
X148797100Y-87614300D01*
X162372500Y-85970000D02*
X150441400Y-85970000D01*
X163164300Y-85178200D02*
X162372500Y-85970000D01*
X163164300Y-81648100D02*
X163164300Y-85178200D01*
X162287900Y-80771700D02*
X163164300Y-81648100D01*
X162000000Y-80771700D02*
X162287900Y-80771700D01*
X162000000Y-79620000D02*
X162000000Y-80771700D01*
%TO.N,AUDIN*%
X108750000Y-65500000D02*
X108750000Y-86500000D01*
X162000000Y-84700000D02*
X160848300Y-84700000D01*
X144750000Y-83562400D02*
X144750000Y-65500000D01*
X146218800Y-85031200D02*
X144750000Y-83562400D01*
X160517100Y-85031200D02*
X146218800Y-85031200D01*
X160848300Y-84700000D02*
X160517100Y-85031200D01*
X146218800Y-85031200D02*
X144750000Y-86500000D01*
%TO.N,MOTOR*%
X139500000Y-83500000D02*
X139500000Y-62500000D01*
X103500000Y-62500000D02*
X103500000Y-83500000D01*
%TO.N,DOUT*%
X134250000Y-86500000D02*
X134250000Y-65500000D01*
X98250000Y-65500000D02*
X98250000Y-86500000D01*
%TO.N,CLKOUT*%
X129000000Y-83500000D02*
X129000000Y-62500000D01*
X93000000Y-62500000D02*
X93000000Y-83500000D01*
%TO.N,CLKIN*%
X91250000Y-65500000D02*
X91250000Y-86500000D01*
X127250000Y-86500000D02*
X127250000Y-65500000D01*
X92348700Y-87598700D02*
X91250000Y-86500000D01*
X126151300Y-87598700D02*
X92348700Y-87598700D01*
X127250000Y-86500000D02*
X126151300Y-87598700D01*
%TO.N,GND*%
X161731500Y-68071700D02*
X162000000Y-68071700D01*
X160841900Y-68961300D02*
X161731500Y-68071700D01*
X160841900Y-69978100D02*
X160841900Y-68961300D01*
X161712100Y-70848300D02*
X160841900Y-69978100D01*
X162000000Y-70848300D02*
X161712100Y-70848300D01*
X162000000Y-72000000D02*
X162000000Y-70848300D01*
X162000000Y-66920000D02*
X162000000Y-68071700D01*
X123992200Y-53992200D02*
X132500000Y-62500000D01*
X121487800Y-53992200D02*
X123992200Y-53992200D01*
X100000000Y-62500000D02*
X100000000Y-83500000D01*
X136000000Y-83500000D02*
X136000000Y-62500000D01*
X136000000Y-62500000D02*
X132500000Y-62500000D01*
%TD*%
M02*
